<svg height="480pt" viewBox="0 -4 480 480" width="480pt" xmlns="http://www.w3.org/2000/svg"><path d="m128 288h224c8.835938 0 16 7.164062 16 16v32c0 8.835938-7.164062 16-16 16h-224c-8.835938 0-16-7.164062-16-16v-32c0-8.835938 7.164062-16 16-16zm0 0" fill="#844aa8"/><path d="m128 288c-8.835938 0-16 7.164062-16 16v32c0 8.835938 7.164062 16 16 16h192l-160-64zm0 0" fill="#643884"/><path d="m176 176h128v112h-128zm0 0" fill="#844aa8"/><path d="m416 192-48 32-64-16v-32l56 16 56-40zm0 0" fill="#ffd782"/><path d="m416 192 40-8v-32h-40" fill="#f9bb4b"/><path d="m64 192 48 32 64-16v-32l-56 16-56-40zm0 0" fill="#ffd782"/><path d="m64 192-40-8v-32h40" fill="#f9bb4b"/><path d="m184 32h112v112h-112zm0 0" fill="#ffd782"/><g fill="#394d5c"><path d="m208 56h16v16h-16zm0 0"/><path d="m256 56h16v16h-16zm0 0"/><path d="m240 120c-1.582031 0-3.125-.46875-4.441406-1.34375l-24-16c-3.675782-2.453125-4.667969-7.421875-2.214844-11.097656 2.453125-3.675782 7.421875-4.667969 11.097656-2.214844l19.558594 13.054688 19.558594-13.039063c3.675781-2.453125 8.644531-1.460937 11.097656 2.214844 2.453125 3.679687 1.460938 8.644531-2.214844 11.097656l-24 16c-1.316406.871094-2.863281 1.332031-4.441406 1.328125zm0 0"/><path d="m184 0h112v32h-112zm0 0"/></g><path d="m176 56h8v48h-8c-13.253906 0-24-10.746094-24-24s10.746094-24 24-24zm0 0" fill="#f9bb4b"/><path d="m304 104h-8v-48h8c13.253906 0 24 10.746094 24 24s-10.746094 24-24 24zm0 0" fill="#f9bb4b"/><path d="m176 176 128 72v40h-128zm0 0" fill="#643884"/><path d="m344 456h16v16h-16zm0 0" fill="#d3843d"/><path d="m376 456h104v16h-104zm0 0" fill="#d3843d"/><path d="m440 56c-13.253906 0-24-10.746094-24-24 0-4.417969-3.582031-8-8-8s-8 3.582031-8 8c0 13.253906-10.746094 24-24 24-4.417969 0-8 3.582031-8 8s3.582031 8 8 8c13.253906 0 24 10.746094 24 24 0 4.417969 3.582031 8 8 8s8-3.582031 8-8c0-13.253906 10.746094-24 24-24 4.417969 0 8-3.582031 8-8s-3.582031-8-8-8zm-32 16.246094c-2.332031-3.136719-5.109375-5.914063-8.246094-8.246094 3.136719-2.332031 5.914063-5.109375 8.246094-8.246094 2.332031 3.136719 5.109375 5.914063 8.246094 8.246094-3.136719 2.332031-5.914063 5.109375-8.246094 8.246094zm0 0" fill="#87cee9"/><path d="m72 264c-13.253906 0-24-10.746094-24-24 0-4.417969-3.582031-8-8-8s-8 3.582031-8 8c0 13.253906-10.746094 24-24 24-4.417969 0-8 3.582031-8 8s3.582031 8 8 8c13.253906 0 24 10.746094 24 24 0 4.417969 3.582031 8 8 8s8-3.582031 8-8c0-13.253906 10.746094-24 24-24 4.417969 0 8-3.582031 8-8s-3.582031-8-8-8zm-32 16.246094c-2.332031-3.136719-5.109375-5.914063-8.246094-8.246094 3.136719-2.332031 5.914063-5.109375 8.246094-8.246094 2.332031 3.136719 5.109375 5.914063 8.246094 8.246094-3.136719 2.332031-5.914063 5.109375-8.246094 8.246094zm0 0" fill="#87cee9"/><path d="m232 376h16v56h-16zm0 0" fill="#aabece"/><path d="m272 384h16v56h-16zm0 0" fill="#aabece"/><path d="m192 384h16v56h-16zm0 0" fill="#aabece"/><path d="m0 456h328v16h-328zm0 0" fill="#d3843d"/><path d="m144 384h16v32h-16zm0 0" fill="#aabece"/><path d="m320 376h16v32h-16zm0 0" fill="#aabece"/></svg>